# xmcd
# 
# Track frame offsets:
#	150
#	9827
#	21458
#	34143
#	48780
#	59730
#	74289
#	85173
#	97373
#	107510
#	116897
#
# Disc length: 1732 seconds
#
# Revision: 1
# Processed by: cddbd v1.4PL0 Copyright (c) Steve Scherf et al.
# Submitted via: Audio-CD-Archiv 2.10.446
#
DISCID=9406c20b
DTITLE=Newport Folk Festival - Bluegrass At Newport (Disk 1)
DYEAR=1959
DGENRE=country
TTITLE0=Lester Flatt, Earl Scruggs and The Foggy Mountain Boys - Salty D
TTITLE1=Lester Flatt, Earl Scruggs and The Foggy Mountain Boys - Bevore
TTITLE2=Lester Flatt, Earl Scruggs and The Foggy Mountain Boys - Cabin O
TTITLE3=Lester Flatt, Earl Scruggs and The Foggy Mountain Boys - Jimmy B
TTITLE4=The New Lost City Ramblers - Train Fourty-Five
TTITLE5=The New Lost City Ramblers - Pretty Little Miss
TTITLE6=The New Lost City Ramblers - Liza Jane
TTITLE7=Tex Logan, Eric Weissberg and The New Lost City Ramblers - Jorda
TTITLE8=Mac Wiseman and The Country Boys - I Wonder How The Old Folks Ar
TTITLE9=Mac Wiseman and The Country Boys - Love Letters In The Sand
TTITLE10=Mac Wiseman and The Country Boys - Little Footsteps In The Snow
EXTD=
EXTT0=
EXTT1=
EXTT2=
EXTT3=
EXTT4=
EXTT5=
EXTT6=
EXTT7=
EXTT8=
EXTT9=
EXTT10=
PLAYORDER=
